# xmcd CD database file
#
# Track frame offsets:
#	150
#	26425
#	50734
#	69797
#	90527
#	107863
#	132002
#	144087
#	154227
#	165676
#	195933
#	206848
#	219134
#	230297
#	240195
#	254036
#	271549
#	286279
#	307543
#	339050
#
# Disc length: 4720 seconds
#
# Revision: 0
# Processed by: cddbd v1.5.1PL0 Copyright (c) Steve Scherf et al.
# Submitted via: CDex 1.51
#
DISCID=fc126e14
DTITLE=Stan Getz - SONG BOOK [20 JAZZ GREATEST HITS]
DYEAR=2004
DGENRE=Jazz
TTITLE0=Desafinado
TTITLE1=The Girl From Ipanema
TTITLE2=Corcovado (Quiet Nights Of Quiet Stars)
TTITLE3=Only Trust Your Heart
TTITLE4=It Never Entered My Mind
TTITLE5=Over The Rainbow
TTITLE6=The Look Of Love
TTITLE7=If Ever I Would Leave You
TTITLE8=Blowin' In The Wind
TTITLE9=Time After Time
TTITLE10=Moonlight In Vermont
TTITLE11=Stella By Starlight
TTITLE12=Little Rio
TTITLE13=Midnight Samba
TTITLE14='Round Midnight
TTITLE15=Serenade In Blue
TTITLE16=Body And Soul
TTITLE17=Early Autumn
TTITLE18=Summertime
TTITLE19=Thanks For Memory
EXTD=YEAR: 2004
EXTT0=
EXTT1=
EXTT2=
EXTT3=
EXTT4=
EXTT5=
EXTT6=
EXTT7=
EXTT8=
EXTT9=
EXTT10=
EXTT11=
EXTT12=
EXTT13=
EXTT14=
EXTT15=
EXTT16=
EXTT17=
EXTT18=
EXTT19=
PLAYORDER=
